<?xml version="1.0" encoding="iso-8859-1"?>
<!-- Uploaded to: SVG Repo, www.svgrepo.com, Generator: SVG Repo Mixer Tools -->
<svg height="800px" width="800px" version="1.1" id="Layer_1" xmlns="http://www.w3.org/2000/svg" xmlns:xlink="http://www.w3.org/1999/xlink" 
	 viewBox="0 0 512 512" xml:space="preserve">
<path style="fill:#72CCC5;" d="M256,503.983c94.454,0,171.023-76.569,171.023-171.023H84.977
	C84.977,427.414,161.546,503.983,256,503.983z"/>
<path style="fill:#11BBA3;" d="M136.284,332.96H84.977c0,94.454,76.569,171.023,171.023,171.023c8.719,0,17.285-0.657,25.653-1.915
	C199.37,489.69,136.284,418.694,136.284,332.96z"/>
<g>
	<polygon style="fill:#66BF00;" points="332.96,375.716 332.96,409.921 341.511,435.574 367.165,427.023 384.267,392.818 
		384.267,367.165 418.472,332.96 281.653,332.96 290.205,367.165 	"/>
	<path style="fill:#66BF00;" d="M187.591,332.96H84.977c0,80.038,54.985,147.226,129.239,165.872l-0.972-3.4l-8.551-34.205
		l25.653-17.102l8.551-34.205v-42.756l-25.653-8.551L187.591,332.96z"/>
</g>
<path style="fill:#58AB23;" d="M207.313,471.708c-43.023-31.061-71.029-81.63-71.029-138.748H84.977
	c0,80.038,54.985,147.226,129.239,165.872l-0.972-3.4L207.313,471.708z"/>
<path style="fill:#66BF00;" d="M256,78.798c-20.442,11.829-34.205,33.918-34.205,59.235s13.763,47.404,34.205,59.235
	c20.442-11.829,34.205-33.918,34.205-59.235C290.205,112.715,276.442,90.627,256,78.798z"/>
<path style="fill:#58AB23;" d="M256,169.241c-16.564-9.586-28.739-25.907-32.764-45.222c-0.943,4.522-1.441,9.21-1.441,14.012
	c0,25.317,13.763,47.404,34.205,59.235c20.442-11.829,34.205-33.918,34.205-59.235c0-4.804-0.498-9.49-1.441-14.012
	C284.739,143.335,272.564,159.656,256,169.241z"/>
<path style="fill:#66BF00;" d="M381.946,181.361c-22.82-6.089-48.17-0.203-66.072,17.699
	c-17.902,17.902-23.788,43.252-17.699,66.072c22.82,6.09,48.17,0.203,66.072-17.699S388.035,204.18,381.946,181.361z"/>
<path style="fill:#58AB23;" d="M381.946,181.361c-4.07-1.086-8.223-1.784-12.398-2.108c2.473,20.176-4.014,41.239-19.501,56.726
	c-14.708,14.708-34.444,21.299-53.673,19.807c0.386,3.145,0.981,6.268,1.802,9.345c22.82,6.089,48.17,0.203,66.072-17.699
	C382.149,229.531,388.035,204.18,381.946,181.361z"/>
<path style="fill:#66BF00;" d="M130.054,181.361c22.819-6.089,48.17-0.203,66.072,17.699s23.788,43.252,17.699,66.072
	c-22.82,6.09-48.17,0.203-66.072-17.699S123.965,204.18,130.054,181.361z"/>
<path style="fill:#58AB23;" d="M161.953,235.98c-15.488-15.488-21.974-36.551-19.501-56.726c-4.175,0.324-8.328,1.022-12.398,2.108
	c-6.089,22.82-0.203,48.17,17.699,66.072s43.252,23.788,66.072,17.699c0.821-3.077,1.417-6.201,1.802-9.345
	C196.397,257.278,176.661,250.688,161.953,235.98z"/>
<circle style="fill:#FC9C47;" cx="435.574" cy="76.426" r="34.205"/>
<circle style="fill:#FFC552;" cx="435.574" cy="76.426" r="17.102"/>
<g>
	<path style="fill:#E8E6D9;" d="M196.142,8.017c23.613,0,42.756,19.143,42.756,42.756h-85.511
		C153.386,27.16,172.529,8.017,196.142,8.017z"/>
	<path style="fill:#E8E6D9;" d="M119.182,16.568c18.891,0,34.205,15.314,34.205,34.205H84.977
		C84.977,31.882,100.291,16.568,119.182,16.568z"/>
	<path style="fill:#E8E6D9;" d="M119.182,93.528c23.613,0,42.756,19.143,42.756,42.756H76.426
		C76.426,112.671,95.569,93.528,119.182,93.528z"/>
	<path style="fill:#E8E6D9;" d="M42.221,102.079c18.891,0,34.205,15.314,34.205,34.205H8.017
		C8.017,117.393,23.331,102.079,42.221,102.079z"/>
</g>
<path d="M427.023,324.944H264.017v-14.317l36.681-36.681c5,1.008,10.047,1.506,15.068,1.506c20.046,0,39.671-7.872,54.149-22.351
	c19.218-19.219,26.796-47.499,19.776-73.807c-0.74-2.773-2.906-4.939-5.679-5.679c-26.308-7.02-54.588,0.558-73.807,19.776
	c-18.105,18.105-25.874,44.253-20.844,69.217l-25.343,25.346v-86.238c21.208-14.095,34.205-38.078,34.205-63.683
	c0-27.179-14.64-52.535-38.205-66.173c-2.484-1.438-5.546-1.438-8.032,0c-23.566,13.637-38.205,38.993-38.205,66.172
	c0,25.604,12.997,49.587,34.205,63.683v86.238l-25.345-25.345c5.029-24.964-2.74-51.112-20.844-69.217
	c-19.219-19.218-47.498-26.796-73.807-19.776c-2.773,0.74-4.939,2.906-5.679,5.679c-7.019,26.307,0.558,54.588,19.776,73.807
	c14.479,14.479,34.101,22.351,54.149,22.351c5.021,0,10.068-0.498,15.068-1.506l36.682,36.681v14.317H84.977
	c-4.427,0-8.017,3.589-8.017,8.017c0,28.339,6.43,55.447,19.113,80.572c1.996,3.953,6.817,5.54,10.769,3.544
	c3.953-1.995,5.54-6.816,3.544-10.769c-10.34-20.484-16.114-42.428-17.203-65.331h91.087l23.305,23.305
	c0.88,0.88,1.953,1.543,3.134,1.937l20.171,6.724v35.991l-7.56,30.241l-23.074,15.382c-2.819,1.879-4.153,5.327-3.331,8.614
	l5.975,23.903c-27.143-9.352-51.641-25.815-70.774-48.164c-2.879-3.364-7.941-3.756-11.304-0.877
	c-3.363,2.88-3.756,7.94-0.876,11.304C154.031,489.16,203.623,512,256,512c98.723,0,179.04-80.317,179.04-179.04
	C435.04,328.533,431.45,324.944,427.023,324.944z M358.579,241.764c-11.571,11.571-27.306,17.786-43.339,17.641l60.978-60.978
	C376.363,214.461,370.148,230.194,358.579,241.764z M321.542,204.728c11.571-11.571,27.305-17.787,43.339-17.641l-60.979,60.979
	C303.758,232.032,309.973,216.299,321.542,204.728z M282.188,138.032c0,16.364-6.731,31.883-18.171,43.118V94.913
	C275.457,106.15,282.188,121.669,282.188,138.032z M229.812,138.032c0-16.363,6.731-31.882,18.171-43.118v86.236
	C236.543,169.915,229.812,154.395,229.812,138.032z M190.458,204.728c11.571,11.571,17.784,27.304,17.64,43.338l-60.978-60.978
	C163.153,186.945,178.887,193.159,190.458,204.728z M153.422,241.764c-11.571-11.571-17.784-27.304-17.64-43.338l60.978,60.978
	C180.726,259.549,164.992,253.335,153.422,241.764z M334.533,367.855l-37.781-7.556l-4.83-19.322h107.197l-20.52,20.52
	c-1.504,1.503-2.348,3.542-2.348,5.668v23.76l-14.771,29.542l-14.898,4.966l-5.604-16.814v-32.904
	C340.977,371.895,338.28,368.605,334.533,367.855z M256,495.967c-11.997,0-23.833-1.319-35.326-3.867l-6.833-27.336l20.952-13.968
	c1.66-1.106,2.848-2.791,3.331-4.726l8.551-34.205c0.159-0.636,0.239-1.289,0.239-1.944v-42.756c0-3.45-2.208-6.514-5.481-7.605
	l-23.858-7.953l-10.631-10.63h68.45l7.033,28.132c0.751,3.006,3.167,5.309,6.205,5.917l36.311,7.261v27.633
	c0,0.862,0.139,1.718,0.412,2.535l8.551,25.653c1.12,3.36,4.248,5.484,7.604,5.483c0.84,0,1.695-0.134,2.536-0.414l25.653-8.551
	c2.017-0.672,3.684-2.119,4.635-4.02l17.102-34.205c0.557-1.114,0.847-2.34,0.847-3.585v-22.333l26.334-26.334
	C412.847,428.833,342.12,495.967,256,495.967z"/>
<path d="M435.574,34.205c-23.281,0-42.221,18.941-42.221,42.221s18.941,42.221,42.221,42.221c23.28,0,42.221-18.941,42.221-42.221
	S458.855,34.205,435.574,34.205z M435.574,102.614c-14.44,0-26.188-11.748-26.188-26.188s11.748-26.188,26.188-26.188
	c14.44,0,26.188,11.748,26.188,26.188S450.014,102.614,435.574,102.614z"/>
<path d="M435.574,24.585c4.427,0,8.017-3.589,8.017-8.017V8.017c0-4.427-3.589-8.017-8.017-8.017c-4.427,0-8.017,3.589-8.017,8.017
	v8.551C427.557,20.995,431.147,24.585,435.574,24.585z"/>
<path d="M461.495,31.53c3.787,2.187,8.768,0.847,10.951-2.934l4.276-7.405c2.214-3.834,0.9-8.737-2.934-10.951
	c-3.834-2.215-8.737-0.9-10.951,2.934l-4.276,7.405C456.347,24.414,457.661,29.317,461.495,31.53z"/>
<path d="M487.42,54.515c1.36,0,2.739-0.346,4.001-1.075l7.405-4.276c3.834-2.214,5.148-7.117,2.934-10.951
	c-2.214-3.834-7.117-5.148-10.951-2.934l-7.405,4.276c-2.982,1.722-4.557,5.27-3.829,8.636
	C480.366,51.839,483.687,54.515,487.42,54.515z"/>
<path d="M503.983,68.409h-8.551c-4.427,0-8.017,3.589-8.017,8.017s3.589,8.017,8.017,8.017h8.551c4.427,0,8.017-3.589,8.017-8.017
	S508.411,68.409,503.983,68.409z"/>
<path d="M498.827,103.688l-7.405-4.276c-3.834-2.215-8.737-0.9-10.951,2.934c-2.214,3.834-0.9,8.737,2.934,10.951l7.405,4.276
	c4.09,2.362,9.464,0.581,11.355-3.733C503.783,110.149,502.315,105.701,498.827,103.688z"/>
<path d="M472.446,124.257c-2.214-3.835-7.118-5.149-10.951-2.934c-3.834,2.214-5.148,7.117-2.934,10.951l4.276,7.405
	c2.356,4.081,7.897,5.242,11.7,2.446c3.247-2.388,4.199-6.975,2.186-10.462L472.446,124.257z"/>
<path d="M401.362,143.688c2.771,0,5.465-1.439,6.95-4.009l4.276-7.405c2.214-3.834,0.9-8.737-2.934-10.951
	c-3.834-2.215-8.737-0.9-10.951,2.934l-4.276,7.405C391.405,136.895,395.282,143.688,401.362,143.688z"/>
<path d="M379.727,99.412l-7.405,4.276c-3.488,2.013-4.956,6.461-3.338,10.153c1.891,4.314,7.265,6.095,11.355,3.733l7.405-4.276
	c3.834-2.214,5.148-7.117,2.934-10.951C388.464,98.511,383.562,97.199,379.727,99.412z"/>
<path d="M367.165,84.443h8.551c4.427,0,8.017-3.589,8.017-8.017s-3.589-8.017-8.017-8.017h-8.551c-4.369,0-8.017,3.648-8.017,8.017
	S362.796,84.443,367.165,84.443z"/>
<path d="M372.321,49.164l7.405,4.276c4.09,2.362,9.464,0.581,11.355-3.733c1.618-3.691,0.15-8.14-3.338-10.153l-7.405-4.276
	c-3.835-2.215-8.737-0.9-10.951,2.934S368.487,46.95,372.321,49.164z"/>
<path d="M398.703,28.595c2.356,4.081,7.897,5.242,11.7,2.446c3.247-2.388,4.199-6.975,2.186-10.462l-4.276-7.405
	c-2.214-3.834-7.118-5.148-10.951-2.934c-3.834,2.214-5.148,7.117-2.934,10.951L398.703,28.595z"/>
<path d="M435.574,128.267c-4.427,0-8.017,3.589-8.017,8.017v8.551c0,4.427,3.589,8.017,8.017,8.017c4.427,0,8.017-3.589,8.017-8.017
	v-8.551C443.591,131.857,440.001,128.267,435.574,128.267z"/>
<path d="M84.977,58.789h153.921c4.427,0,8.017-3.589,8.017-8.017C246.914,22.777,224.137,0,196.142,0
	c-18.542,0-34.786,9.996-43.648,24.877c-7.732-9.925-19.785-16.326-33.312-16.326c-23.281,0-42.221,18.941-42.221,42.221
	C76.96,55.2,80.55,58.789,84.977,58.789z M196.142,16.033c16.397,0,30.177,11.419,33.805,26.722h-67.611
	C165.965,27.452,179.745,16.033,196.142,16.033z M119.182,24.585c11.646,0,21.539,7.639,24.933,18.171H94.249
	C97.642,32.224,107.536,24.585,119.182,24.585z"/>
<path d="M169.954,136.284c0-27.995-22.777-50.772-50.772-50.772c-18.542,0-34.786,9.996-43.648,24.877
	c-7.732-9.925-19.785-16.326-33.312-16.326C18.941,94.063,0,113.003,0,136.284c0,4.427,3.589,8.017,8.017,8.017h153.921
	C166.365,144.301,169.954,140.711,169.954,136.284z M17.288,128.267c3.394-10.532,13.288-18.171,24.933-18.171
	s21.539,7.639,24.933,18.171H17.288z M85.377,128.267c3.628-15.303,17.408-26.722,33.805-26.722s30.177,11.419,33.805,26.722H85.377
	z"/>
</svg>