<?xml version="1.0" standalone="no"?>
<!DOCTYPE svg PUBLIC "-//W3C//DTD SVG 20010904//EN"
 "http://www.w3.org/TR/2001/REC-SVG-20010904/DTD/svg10.dtd">
<svg version="1.0" xmlns="http://www.w3.org/2000/svg"
 width="1402.000000pt" height="266.000000pt" viewBox="0 0 1402.000000 266.000000"
 preserveAspectRatio="xMidYMid meet">

<g transform="translate(0.000000,266.000000) scale(0.100000,-0.100000)"
fill="#000000" stroke="none">
<path d="M1559 2540 c-4 -24 -7 -25 -79 -27 -120 -4 -289 -23 -375 -43 -44
-10 -70 -19 -57 -19 20 -1 27 -11 23 -33 -2 -12 22 -9 42 6 13 10 15 15 5 18
-7 3 3 4 22 4 19 0 53 3 75 7 37 6 35 5 -18 -17 -72 -31 -169 -89 -226 -135
-25 -20 -55 -43 -67 -51 -69 -47 -205 -269 -236 -385 -8 -29 -18 -45 -28 -45
-12 0 -12 -2 -2 -9 11 -7 12 -24 4 -92 -6 -46 -8 -96 -5 -111 l5 -28 849 0
c521 0 850 -4 854 -9 12 -21 -27 -161 -69 -247 -102 -206 -316 -367 -543 -408
-133 -25 -176 -26 -274 -11 -164 27 -274 73 -395 168 -130 102 -238 271 -260
405 l-7 42 -73 0 -74 0 6 -57 c4 -32 10 -63 15 -68 4 -6 17 -34 28 -63 30 -75
97 -179 153 -237 26 -28 48 -55 48 -60 0 -6 9 -15 19 -20 11 -6 48 -31 84 -56
35 -26 94 -61 131 -79 36 -18 66 -36 66 -41 0 -9 -21 -4 -57 13 -17 8 -26 8
-38 -2 -12 -10 -19 -10 -27 -2 -15 15 -45 15 -53 1 -10 -16 -7 -17 97 -38 133
-28 289 -42 448 -42 258 0 566 47 544 83 -8 12 -42 10 -47 -4 -3 -10 -9 -10
-26 0 -14 8 -27 10 -34 4 -17 -13 -77 -23 -77 -13 0 5 20 17 44 26 51 20 137
72 214 130 162 121 312 403 312 584 0 18 5 41 10 51 7 13 7 21 0 25 -5 3 -10
15 -10 26 0 17 -7 19 -77 19 -928 0 -1624 7 -1633 16 -7 7 -4 34 11 90 71 277
267 474 553 554 417 117 868 -131 976 -535 l15 -60 73 -3 c67 -3 72 -1 72 18
0 11 7 23 17 27 14 6 14 7 -4 14 -15 5 -28 29 -43 76 -37 110 -76 180 -153
275 -20 25 -37 50 -37 57 0 6 -6 11 -13 11 -7 0 -31 15 -53 33 -85 71 -227
157 -259 157 -7 0 -16 4 -19 9 -3 5 19 8 48 7 30 0 50 -4 45 -7 -5 -3 1 -11
15 -17 19 -8 27 -8 35 2 6 7 8 16 4 19 -3 4 5 8 18 8 18 1 16 3 -11 9 -112 26
-216 40 -328 46 -158 7 -171 9 -181 37 -9 22 -9 22 -12 -3z"/>
<path d="M988 2443 c6 -2 18 -2 25 0 6 3 1 5 -13 5 -14 0 -19 -2 -12 -5z"/>
<path d="M2116 2441 c-3 -4 6 -6 19 -3 14 2 25 6 25 8 0 8 -39 4 -44 -5z"/>
<path d="M980 2414 l-25 -15 25 7 c28 7 35 12 29 18 -2 2 -15 -2 -29 -10z"/>
<path d="M2130 2420 c0 -5 5 -10 11 -10 5 0 7 5 4 10 -3 6 -8 10 -11 10 -2 0
-4 -4 -4 -10z"/>
<path d="M888 2413 c6 -2 18 -2 25 0 6 3 1 5 -13 5 -14 0 -19 -2 -12 -5z"/>
<path d="M848 2403 c7 -3 16 -2 19 1 4 3 -2 6 -13 5 -11 0 -14 -3 -6 -6z"/>
<path d="M2278 2403 c7 -3 16 -2 19 1 4 3 -2 6 -13 5 -11 0 -14 -3 -6 -6z"/>
<path d="M720 2360 c-23 -7 -23 -8 8 -9 24 -1 35 -6 39 -20 4 -16 43 -39 43
-25 0 5 -59 64 -62 63 -2 -1 -14 -5 -28 -9z"/>
<path d="M2380 2360 c0 -5 5 -10 10 -10 6 0 10 5 10 10 0 6 -4 10 -10 10 -5 0
-10 -4 -10 -10z"/>
<path d="M11810 2340 c0 -6 15 -10 33 -10 17 0 84 -3 147 -6 l115 -6 31 -34
c17 -19 34 -34 37 -34 3 0 21 16 40 35 l35 35 156 0 156 0 2 -87 c1 -49 3
-122 4 -163 1 -41 -1 -81 -3 -87 -4 -10 -44 -13 -155 -13 -153 0 -173 -4 -216
-44 -22 -19 -24 -20 -33 -3 -22 39 -61 47 -224 47 l-155 0 0 172 c0 94 -2 169
-5 166 -3 -3 -8 -77 -11 -164 -3 -88 -7 -165 -9 -171 -3 -9 -26 -13 -70 -13
l-65 0 -1 -282 c-1 -156 -2 -335 -3 -398 -2 -200 17 -295 80 -400 89 -149 234
-245 406 -271 140 -21 308 30 413 126 28 25 43 43 35 40 -13 -4 -61 58 -153
195 l-17 27 53 -14 c55 -14 54 -14 194 28 53 16 69 5 53 -36 -21 -55 -2 -35
22 22 23 58 23 59 23 513 l0 455 -67 3 -68 3 0 189 0 190 -161 0 c-170 0 -209
-8 -239 -50 -14 -19 -15 -19 -48 13 l-33 32 -150 2 c-91 2 -149 -1 -149 -7z
m-36 -564 c64 -83 116 -156 116 -163 0 -19 -41 -16 -96 8 -30 14 -68 21 -100
21 l-53 0 -3 141 c-2 78 -1 146 1 150 5 12 5 12 135 -157z m936 8 l0 -146 -28
7 c-31 6 -81 -4 -154 -32 -26 -9 -50 -14 -54 -10 -7 7 30 64 128 197 69 94 98
130 103 130 3 0 5 -66 5 -146z m-720 61 c0 -7 5 -15 12 -17 21 -7 0 -40 -24
-36 -19 2 -22 8 -19 33 1 17 5 33 8 38 6 11 23 -2 23 -18z m402 -16 c16 -11
-4 -40 -26 -37 -23 3 -28 29 -13 62 9 19 10 19 20 0 6 -10 14 -22 19 -25z
m-263 4 c7 -16 8 -30 3 -35 -11 -11 -47 -7 -44 5 1 4 2 18 2 32 0 33 24 32 39
-2z m126 7 c22 -25 13 -52 -17 -48 -13 2 -22 6 -20 11 1 4 2 18 2 32 0 30 11
32 35 5z m-260 -127 c-11 -100 -17 -115 -26 -58 -14 93 -11 115 12 115 19 0
20 -4 14 -57z m130 0 c-3 -32 -9 -69 -12 -83 -6 -22 -7 -21 -14 15 -4 22 -8
59 -8 83 -1 36 2 42 20 42 19 0 20 -4 14 -57z m130 -5 c-4 -35 -9 -70 -12 -78
-8 -20 -20 32 -22 93 -1 41 2 47 19 47 20 0 21 -4 15 -62z m129 10 c-3 -29 -8
-64 -11 -78 -6 -25 -6 -25 -13 5 -4 17 -8 51 -9 78 -1 40 2 47 19 47 17 0 19
-5 14 -52z m-613 -219 c40 -17 62 -21 114 -16 l65 5 0 -53 c0 -44 -4 -55 -22
-67 -42 -27 -74 -29 -128 -8 -29 11 -74 20 -105 20 l-55 0 0 63 c0 35 3 67 7
70 13 14 76 6 124 -14z m569 15 c31 -7 32 -8 25 -43 -4 -20 -7 -44 -8 -53 -1
-9 -5 -15 -8 -12 -7 4 -22 -12 -25 -26 -2 -11 -16 -46 -24 -62 -6 -11 -4 -20
5 -28 23 -19 18 -39 -10 -46 -24 -6 -25 -8 -10 -23 30 -34 14 -52 -26 -31 -22
12 -23 11 -9 -25 13 -33 -14 -47 -35 -19 -14 18 -15 17 -19 -18 0 -8 -19 -14
-43 -16 -29 -2 -43 -8 -43 -18 0 -8 6 -14 13 -15 9 0 9 -2 -1 -6 -7 -2 -32 7
-56 21 -58 34 -87 92 -85 169 1 31 5 54 9 52 10 -6 42 30 34 38 -4 3 12 25 35
49 23 24 46 57 53 75 10 29 16 32 57 36 87 7 139 7 171 1z m354 0 c12 -5 16
-21 16 -69 l0 -62 -58 -1 c-35 0 -77 -9 -107 -22 -51 -22 -81 -21 -122 6 -19
12 -23 23 -23 70 l0 56 33 -8 c50 -11 94 -6 140 15 43 20 93 26 121 15z m-923
-274 c52 -23 97 -25 144 -6 l34 15 7 -45 c5 -39 3 -49 -16 -69 -34 -36 -78
-41 -149 -16 -34 12 -81 21 -106 21 l-45 0 0 54 c0 34 5 56 13 59 27 11 77 6
118 -13z m927 11 c9 -5 12 -25 10 -62 l-3 -54 -41 3 c-23 2 -66 -6 -100 -17
-71 -25 -102 -26 -134 -4 -35 24 -40 33 -40 75 l0 38 73 -6 c59 -4 79 -1 112
15 42 20 101 26 123 12z m-928 -259 c40 -17 132 -19 173 -3 25 10 27 9 18 -7
-23 -40 -147 -197 -156 -196 -29 1 -142 192 -131 221 6 15 36 10 96 -15z m280
-97 c7 -17 17 -25 34 -25 33 0 41 -16 15 -30 -17 -10 -20 -18 -16 -46 6 -38 2
-41 -24 -18 -17 15 -20 15 -43 0 -34 -21 -36 -21 -26 12 6 22 2 32 -19 55 -17
19 -21 28 -11 27 42 -6 60 1 66 25 3 14 8 25 10 25 3 0 9 -11 14 -25z m270 0
c7 -19 17 -25 40 -25 35 0 39 -13 9 -34 -17 -11 -20 -20 -14 -45 7 -35 0 -39
-26 -15 -16 14 -20 14 -45 -2 l-27 -19 6 32 c5 23 1 35 -13 48 -28 25 -25 35
10 35 23 0 31 5 36 25 3 14 8 25 10 25 3 0 9 -11 14 -25z"/>
<path d="M2346 2324 c-21 -20 -20 -23 4 -17 11 3 20 12 20 19 0 18 -5 18 -24
-2z"/>
<path d="M11770 2329 c0 -5 5 -7 10 -4 6 3 10 8 10 11 0 2 -4 4 -10 4 -5 0
-10 -5 -10 -11z"/>
<path d="M1525 2055 l0 -265 47 0 48 0 2 188 3 187 42 -2 c94 -4 221 -65 307
-147 70 -68 101 -113 136 -198 23 -56 25 -58 61 -58 21 0 40 4 43 8 7 11 -40
141 -58 161 -9 10 -16 21 -16 25 0 13 -62 87 -109 131 -89 82 -240 156 -353
173 -48 6 -53 10 -56 35 -3 25 -7 27 -50 27 l-47 0 0 -265z"/>
<path d="M810 2275 c0 -8 9 -15 20 -15 11 0 20 7 20 15 0 8 -9 15 -20 15 -11
0 -20 -7 -20 -15z"/>
<path d="M2287 2271 c-3 -14 0 -17 14 -14 11 3 19 12 19 19 0 21 -27 17 -33
-5z"/>
<path d="M11949 2198 c-17 -35 -44 -86 -60 -115 -33 -59 -34 -63 -16 -63 8 0
22 18 32 40 l18 40 62 0 62 0 18 -40 c24 -54 51 -56 28 -2 -28 66 -92 190
-102 197 -6 3 -25 -23 -42 -57z m71 -45 c0 -7 0 -16 0 -20 0 -8 -61 -5 -69 3
-3 2 3 21 13 41 l18 37 19 -24 c10 -14 19 -31 19 -37z"/>
<path d="M12314 2246 c-40 -18 -64 -52 -64 -91 1 -34 14 -54 53 -79 24 -16 27
-16 27 -3 0 9 -9 21 -20 27 -77 41 -19 144 72 126 42 -8 68 -33 68 -65 0 -32
-8 -44 -38 -60 -33 -17 -28 -74 6 -79 13 -2 31 0 40 4 13 6 9 9 -17 13 -45 8
-47 21 -8 46 106 67 -2 213 -119 161z"/>
<path d="M1335 2227 c-133 -48 -277 -160 -332 -256 -15 -25 -32 -53 -38 -61
-6 -8 -17 -33 -24 -55 -7 -22 -15 -46 -18 -53 -4 -10 48 -12 254 -10 l258 3 1
30 c2 58 6 57 -184 54 -128 -2 -177 1 -180 9 -6 19 66 110 122 154 60 48 149
94 199 103 32 6 37 12 43 41 13 69 -4 76 -101 41z"/>
<path d="M2687 2209 c7 -7 15 -10 18 -7 3 3 -2 9 -12 12 -14 6 -15 5 -6 -5z"/>
<path d="M6240 2169 c-35 -13 -50 -41 -41 -75 6 -25 16 -31 67 -45 46 -12 60
-20 62 -37 5 -30 -39 -40 -73 -18 -14 9 -25 20 -25 25 0 5 -9 7 -20 4 -30 -8
-24 -31 13 -54 24 -15 42 -19 76 -15 56 8 71 20 71 62 0 38 -29 64 -70 64 -15
0 -35 6 -46 14 -15 12 -17 18 -8 33 16 26 40 27 63 4 22 -22 53 -18 44 5 -6
16 -55 44 -75 43 -7 0 -24 -5 -38 -10z"/>
<path d="M6473 2169 c-47 -14 -73 -52 -73 -108 0 -39 5 -52 29 -75 54 -52 162
-41 190 20 14 30 14 89 1 113 -22 42 -92 66 -147 50z m96 -55 c12 -15 21 -37
21 -49 0 -38 -37 -75 -74 -75 -43 0 -70 30 -70 77 0 68 82 99 123 47z"/>
<path d="M6733 2173 c-12 -2 -34 -18 -48 -34 -35 -42 -35 -106 0 -148 46 -54
154 -50 185 8 15 28 13 38 -10 44 -12 3 -20 0 -20 -7 0 -22 -35 -46 -68 -46
-37 0 -62 30 -62 75 0 68 59 98 103 52 22 -24 47 -26 47 -3 0 36 -74 70 -127
59z"/>
<path d="M6916 2161 c-4 -5 -6 -52 -5 -105 1 -94 1 -96 25 -96 22 0 24 4 24
45 l0 45 50 0 50 0 0 -45 c0 -38 3 -45 20 -45 19 0 20 7 20 105 0 97 -1 105
-19 105 -16 0 -20 -8 -23 -42 l-3 -43 -45 0 -45 0 -3 43 c-3 33 -7 42 -22 42
-10 0 -21 -4 -24 -9z"/>
<path d="M7147 2163 c-4 -3 -7 -51 -7 -105 0 -98 0 -98 25 -98 l25 0 0 105 c0
95 -2 105 -18 105 -10 0 -22 -3 -25 -7z"/>
<path d="M355 2150 c-3 -5 -1 -10 4 -10 6 0 11 5 11 10 0 6 -2 10 -4 10 -3 0
-8 -4 -11 -10z"/>
<path d="M7260 2140 c-24 -24 -25 -36 -4 -44 25 -10 31 -7 37 14 8 29 37 26
37 -5 0 -19 -9 -29 -39 -44 -40 -21 -51 -37 -51 -77 0 -23 3 -24 70 -24 63 0
70 2 70 20 0 17 -7 20 -46 20 -55 0 -55 15 2 45 32 17 40 26 42 55 3 24 -2 38
-14 47 -27 20 -81 16 -104 -7z"/>
<path d="M7435 2135 c-29 -28 -34 -89 -10 -134 25 -49 90 -57 130 -16 33 32
36 120 5 153 -30 32 -93 30 -125 -3z m87 -22 c21 -19 25 -82 6 -101 -17 -17
-43 -15 -59 4 -25 31 -8 114 24 114 6 0 19 -7 29 -17z"/>
<path d="M7630 2133 c-20 -26 -20 -28 -3 -34 28 -11 30 -11 36 12 7 27 41 22
45 -7 2 -16 -7 -25 -38 -39 -45 -20 -60 -40 -60 -80 0 -26 0 -26 73 -23 56 2
72 6 72 18 0 11 -13 16 -47 18 -27 2 -48 7 -48 12 0 5 19 19 43 31 47 24 57
35 57 65 0 56 -92 75 -130 27z"/>
<path d="M7820 2098 c-53 -84 -53 -98 5 -98 38 0 45 -3 45 -20 0 -15 7 -20 25
-20 18 0 25 5 25 20 0 11 5 20 10 20 6 0 10 9 10 20 0 11 -4 20 -10 20 -6 0
-10 27 -10 60 l0 60 -30 0 c-26 0 -36 -8 -70 -62z m47 -55 c-3 -2 -15 -3 -26
-1 -20 3 -20 3 2 38 l22 35 3 -33 c2 -19 1 -36 -1 -39z"/>
<path d="M2620 2116 c0 -2 8 -10 18 -17 15 -13 16 -12 3 4 -13 16 -21 21 -21
13z"/>
<path d="M266 2065 c-3 -9 0 -15 9 -15 9 0 12 6 9 15 -4 8 -7 15 -9 15 -2 0
-5 -7 -9 -15z"/>
<path d="M2856 2065 c-4 -10 1 -15 16 -15 17 0 18 2 8 15 -7 8 -14 15 -15 15
-2 0 -5 -7 -9 -15z"/>
<path d="M12293 2043 c-44 -6 -42 -23 2 -23 24 0 35 5 35 15 0 8 -1 14 -2 13
-2 0 -18 -3 -35 -5z"/>
<path d="M398 1979 c-10 -10 -18 -23 -18 -29 0 -5 8 -10 18 -10 12 0 17 9 18
30 1 17 1 30 0 29 -1 0 -9 -9 -18 -20z"/>
<path d="M2732 1958 c6 -18 28 -21 28 -4 0 9 -7 16 -16 16 -9 0 -14 -5 -12
-12z"/>
<path d="M2581 1934 c0 -11 3 -14 6 -6 3 7 2 16 -1 19 -3 4 -6 -2 -5 -13z"/>
<path d="M363 1905 c-3 -9 -3 -18 -1 -21 3 -3 8 4 11 16 6 23 -1 27 -10 5z"/>
<path d="M523 1870 c3 -11 1 -23 -4 -26 -5 -3 -9 -9 -9 -15 0 -5 8 -1 18 9 18
17 18 52 0 52 -6 0 -8 -9 -5 -20z"/>
<path d="M2600 1875 c0 -7 -6 -16 -12 -18 -7 -3 -4 -6 7 -6 11 -1 25 7 31 17
10 15 8 18 -7 19 -11 1 -19 -4 -19 -12z"/>
<path d="M6354 1871 c-145 -66 -210 -233 -141 -367 27 -53 75 -102 130 -131
49 -27 179 -25 234 4 l42 22 3 -21 c2 -12 9 -23 16 -26 9 -3 12 30 12 143 l0
146 -107 -3 c-93 -3 -108 -5 -111 -20 -3 -16 6 -18 92 -18 l96 0 0 -78 c0 -89
-9 -103 -77 -128 -160 -57 -328 59 -325 225 0 31 5 67 10 81 22 56 71 108 127
135 49 24 64 27 122 22 52 -4 75 -11 109 -36 43 -30 69 -26 42 6 -47 57 -193
81 -274 44z"/>
<path d="M6790 1620 l0 -270 232 2 c174 2 232 6 236 16 3 9 -45 12 -216 12
l-221 0 -3 83 c-2 45 -2 94 0 110 l3 27 133 0 c73 0 135 3 139 6 3 3 3 12 0
20 -4 11 -33 14 -138 14 l-134 0 -3 94 c-2 51 -2 101 0 110 3 14 29 16 224 16
171 0 219 3 216 13 -4 9 -62 13 -236 15 l-232 2 0 -270z"/>
<path d="M7543 1865 c-59 -30 -131 -102 -164 -166 -35 -65 -33 -175 3 -245 38
-73 91 -116 176 -143 152 -49 296 8 362 143 59 119 38 233 -61 341 -87 95
-211 122 -316 70z m-3 -109 c0 -15 7 -26 20 -29 11 -3 20 -11 20 -19 0 -10 -2
-10 -8 -1 -4 7 -13 9 -20 4 -9 -5 -12 -35 -10 -107 l3 -99 40 0 c22 0 42 3 45
7 4 4 40 14 80 22 65 12 79 12 103 0 28 -15 37 -27 13 -18 -24 9 -45 -33 -35
-69 16 -56 12 -84 -13 -89 -19 -4 -23 0 -25 26 -1 16 -6 32 -11 35 -5 3 -12
13 -15 21 -4 8 -4 0 -1 -19 4 -23 3 -31 -5 -27 -14 9 -14 -7 0 -21 13 -13 3
-53 -13 -53 -11 0 -6 88 9 154 9 45 -19 28 -34 -20 -6 -21 -12 -31 -12 -21 -1
10 6 33 13 52 20 47 2 45 -23 -2 -11 -21 -20 -32 -21 -25 0 7 5 22 10 32 8 15
7 18 -4 14 -7 -3 -19 -15 -25 -27 -11 -22 -11 -22 -5 2 5 18 3 22 -7 15 -8 -5
-22 -7 -33 -5 -10 1 -22 -3 -27 -10 -6 -11 -12 -10 -27 4 -10 9 -22 14 -26 10
-9 -9 5 162 20 235 1 8 -6 11 -23 8 -16 -3 -23 -1 -20 7 2 7 12 11 21 11 9 -1
16 4 16 12 0 8 7 14 15 14 9 0 15 -9 15 -24z m328 -331 c0 -16 -2 -15 -8 5
-11 34 -11 60 0 35 5 -11 8 -29 8 -40z m-412 -6 c-9 -19 -15 -29 -16 -22 0 15
22 64 27 60 2 -2 -3 -19 -11 -38z m181 -1 c-3 -8 -6 -5 -6 6 -1 11 2 17 5 13
3 -3 4 -12 1 -19z m30 -45 c-3 -10 -5 -4 -5 12 0 17 2 24 5 18 2 -7 2 -21 0
-30z"/>
<path d="M116 1845 c-3 -9 -6 -22 -5 -28 0 -7 5 -1 10 12 5 13 8 26 5 28 -2 2
-6 -3 -10 -12z"/>
<path d="M2621 1814 c0 -11 3 -14 6 -6 3 7 2 16 -1 19 -3 4 -6 -2 -5 -13z"/>
<path d="M3021 1814 c0 -11 3 -14 6 -6 3 7 2 16 -1 19 -3 4 -6 -2 -5 -13z"/>
<path d="M321 1774 c0 -11 3 -14 6 -6 3 7 2 16 -1 19 -3 4 -6 -2 -5 -13z"/>
<path d="M2632 1760 c0 -14 2 -19 5 -12 2 6 2 18 0 25 -3 6 -5 1 -5 -13z"/>
<path d="M2821 1744 c0 -11 3 -14 6 -6 3 7 2 16 -1 19 -3 4 -6 -2 -5 -13z"/>
<path d="M81 1713 c0 -25 1 -26 9 -8 12 27 12 35 0 35 -5 0 -10 -12 -9 -27z"/>
<path d="M311 1688 c0 -21 -6 -38 -12 -38 -8 0 -8 -4 -1 -12 6 -7 12 -26 14
-43 3 -27 4 -26 8 10 3 22 2 58 -1 80 l-6 40 -2 -37z"/>
<path d="M2636 1654 c-4 -10 -2 -22 3 -27 7 -7 13 -5 17 7 4 10 2 22 -3 27 -7
7 -13 5 -17 -7z"/>
<path d="M72 1651 c-10 -6 -10 -10 2 -20 10 -9 16 -9 21 -1 10 16 -7 31 -23
21z"/>
<path d="M482 1646 c1 -10 8 -17 13 -17 15 1 12 24 -3 29 -9 3 -13 -2 -10 -12z"/>
<path d="M2816 1651 c-3 -5 0 -14 8 -20 10 -9 15 -8 19 3 9 22 -15 37 -27 17z"/>
<path d="M3045 1650 c-4 -6 -3 -16 3 -22 6 -6 12 -6 17 2 4 6 3 16 -3 22 -6 6
-12 6 -17 -2z"/>
<path d="M80 1580 c0 -16 4 -30 8 -30 5 0 7 14 4 30 -2 17 -6 30 -8 30 -2 0
-4 -13 -4 -30z"/>
<path d="M2822 1545 c0 -16 2 -22 5 -12 2 9 2 23 0 30 -3 6 -5 -1 -5 -18z"/>
<path d="M2632 1525 c0 -16 2 -22 5 -12 2 9 2 23 0 30 -3 6 -5 -1 -5 -18z"/>
<path d="M322 1520 c0 -14 2 -19 5 -12 2 6 2 18 0 25 -3 6 -5 1 -5 -13z"/>
<path d="M501 1524 c0 -11 3 -14 6 -6 3 7 2 16 -1 19 -3 4 -6 -2 -5 -13z"/>
<path d="M932 1513 c-29 -6 -24 -29 30 -143 69 -144 222 -277 379 -330 91 -31
99 -29 99 29 l0 48 -62 23 c-71 25 -145 69 -201 119 -42 37 -107 123 -107 140
0 8 55 11 184 11 173 0 185 1 191 19 6 20 0 69 -10 80 -8 7 -469 11 -503 4z"/>
<path d="M1537 1513 c-16 -4 -17 -23 -15 -256 l3 -252 85 2 c150 3 300 65 426
176 57 51 120 134 110 145 -4 3 -46 6 -94 5 -48 -1 -124 -2 -169 -2 l-83 -1 0
-50 0 -50 63 0 62 -1 -25 -21 c-56 -48 -241 -111 -262 -90 -5 5 -7 71 -6 148
l3 139 284 5 284 5 15 44 c12 35 12 45 1 51 -13 9 -651 11 -682 3z"/>
<path d="M112 1470 c0 -14 2 -19 5 -12 2 6 2 18 0 25 -3 6 -5 1 -5 -13z"/>
<path d="M2621 1464 c0 -11 3 -14 6 -6 3 7 2 16 -1 19 -3 4 -6 -2 -5 -13z"/>
<path d="M3021 1464 c0 -11 3 -14 6 -6 3 7 2 16 -1 19 -3 4 -6 -2 -5 -13z"/>
<path d="M361 1394 c0 -11 3 -14 6 -6 3 7 2 16 -1 19 -3 4 -6 -2 -5 -13z"/>
<path d="M2583 1373 c-20 -8 -15 -33 6 -33 14 0 18 5 14 20 -3 11 -6 20 -7 19
0 0 -7 -3 -13 -6z"/>
<path d="M547 1363 c-11 -10 -8 -20 8 -27 10 -4 15 1 15 14 0 20 -11 26 -23
13z"/>
<path d="M410 1288 c0 -35 12 -35 44 -3 28 28 26 32 -4 13 -17 -11 -22 -10
-30 2 -8 12 -10 9 -10 -12z"/>
<path d="M2700 1275 c7 -8 16 -15 21 -15 5 0 9 7 9 15 0 9 -9 15 -21 15 -18 0
-19 -2 -9 -15z"/>
<path d="M2916 1273 c-6 -14 -5 -15 5 -6 7 7 10 15 7 18 -3 3 -9 -2 -12 -12z"/>
<path d="M6240 1191 c0 -79 0 -80 -27 -83 l-28 -3 0 -201 0 -201 30 -49 c101
-162 338 -150 416 21 16 34 19 67 19 237 l0 197 -27 3 c-28 3 -28 4 -31 81
l-3 77 -67 0 c-45 0 -75 -5 -90 -16 -12 -8 -22 -10 -22 -5 0 6 -5 11 -12 11
-8 0 -6 -6 4 -16 15 -16 18 -16 33 0 12 11 34 16 81 16 l64 0 0 -74 0 -74 -72
-6 c-96 -7 -91 -7 -180 0 l-78 6 0 74 0 73 68 4 67 3 -72 2 -73 2 0 -79z m15
-172 l49 -62 -40 6 c-21 4 -47 7 -56 7 -15 0 -18 10 -18 61 0 33 4 58 8 55 4
-3 30 -33 57 -67z m385 12 l0 -58 -42 -6 c-24 -3 -44 -5 -45 -3 -3 2 80 125
85 126 1 0 2 -26 2 -59z m-245 19 c3 -5 1 -10 -4 -10 -6 0 -11 5 -11 10 0 6 2
10 4 10 3 0 8 -4 11 -10z m60 0 c3 -5 -1 -10 -9 -10 -9 0 -16 5 -16 10 0 6 4
10 9 10 6 0 13 -4 16 -10z m50 0 c3 -5 1 -10 -4 -10 -6 0 -11 5 -11 10 0 6 2
10 4 10 3 0 8 -4 11 -10z m-164 -57 c-9 -16 -10 -14 -11 12 0 21 3 26 11 18 8
-8 8 -16 0 -30z m52 5 c-8 -46 -13 -48 -13 -5 0 21 4 37 10 37 5 0 7 -14 3
-32z m56 -5 c-1 -34 -2 -35 -9 -13 -11 36 -11 50 0 50 6 0 10 -17 9 -37z m61
18 c0 -11 -4 -23 -10 -26 -6 -4 -10 5 -10 19 0 14 5 26 10 26 6 0 10 -9 10
-19z m-227 -108 c27 -4 37 -10 37 -23 0 -27 -15 -33 -71 -25 -51 7 -66 21 -55
51 5 12 13 14 29 9 12 -4 39 -9 60 -12z m217 -52 c0 -76 -19 -114 -64 -125
-64 -16 -106 39 -106 139 l0 55 85 0 85 0 0 -69z m140 40 c0 -27 -3 -29 -55
-36 -63 -7 -75 -3 -75 29 0 19 4 22 29 18 16 -2 37 1 48 7 34 20 53 13 53 -18z
m-342 -91 c32 0 40 -12 23 -38 -9 -15 -28 -16 -88 -6 -37 6 -43 10 -43 32 0
23 3 24 38 18 20 -3 52 -6 70 -6z m342 -13 c0 -19 -8 -24 -47 -34 -54 -12 -83
-3 -83 27 0 15 9 20 43 23 90 8 87 8 87 -16z m-358 -95 l37 -7 -29 -38 -28
-38 -25 33 c-13 18 -27 41 -31 52 -5 16 -3 17 16 11 13 -4 40 -10 60 -13z
m348 13 c0 -11 -40 -84 -49 -89 -5 -4 -24 12 -41 34 l-32 40 34 1 c18 0 42 4
53 9 24 10 35 12 35 5z m-254 -49 c17 -17 6 -51 -16 -51 -21 0 -32 33 -17 50
15 18 16 18 33 1z m120 -31 c0 -14 -7 -20 -22 -20 -24 0 -29 30 -10 51 14 15
32 -4 32 -31z"/>
<path d="M6411 862 c-1 -7 -4 -11 -8 -9 -5 3 -14 -1 -21 -9 -7 -8 -9 -14 -5
-14 4 0 1 -5 -7 -10 -12 -7 -12 -10 -1 -10 8 0 11 -6 7 -16 -4 -10 -2 -13 6
-8 8 5 9 2 4 -11 -5 -15 -4 -16 8 -6 11 10 15 8 19 -6 4 -17 5 -17 6 1 1 15 4
16 16 6 13 -11 14 -10 9 4 -5 13 -2 15 12 9 16 -6 17 -5 6 9 -11 14 -10 17 5
21 17 4 17 5 -1 6 -15 1 -16 4 -6 16 11 13 10 14 -5 9 -14 -6 -16 -4 -10 6 6
10 4 12 -8 7 -9 -3 -18 -1 -21 6 -3 9 -5 8 -5 -1z"/>
<path d="M6312 1184 c-22 -45 -30 -73 -11 -41 11 19 69 24 69 5 0 -6 2 -9 5
-6 3 3 3 12 -1 21 -4 12 -13 15 -32 10 -26 -6 -26 -6 -9 20 9 14 13 28 9 31
-5 3 -18 -15 -30 -40z"/>
<path d="M6462 1218 c-17 -17 -15 -55 3 -62 12 -4 13 -2 3 14 -23 37 34 69 62
35 10 -13 10 -19 -4 -33 -21 -24 -20 -42 2 -42 13 0 14 2 4 9 -10 6 -10 10 3
21 20 17 19 33 -3 53 -22 20 -53 22 -70 5z"/>
<path d="M305 1191 c-6 -11 9 -23 19 -14 9 9 7 23 -3 23 -6 0 -12 -4 -16 -9z"/>
<path d="M2820 1184 c0 -8 5 -12 10 -9 6 4 8 11 5 16 -9 14 -15 11 -15 -7z"/>
<path d="M6458 1133 c7 -3 16 -2 19 1 4 3 -2 6 -13 5 -11 0 -14 -3 -6 -6z"/>
<path d="M381 1117 c2 -1 13 -9 24 -17 19 -14 19 -14 6 3 -7 9 -18 17 -24 17
-6 0 -8 -1 -6 -3z"/>
<path d="M6808 903 c4 -233 10 -260 71 -300 43 -29 139 -32 191 -5 68 34 75
60 78 300 l3 212 -60 0 -61 0 0 -199 c0 -178 -2 -201 -18 -221 -14 -18 -25
-21 -45 -16 -41 10 -50 56 -46 259 l4 177 -60 0 -60 0 3 -207z"/>
<path d="M7215 846 l0 -266 105 0 c123 0 167 10 201 46 21 23 24 35 24 109 0
67 -4 87 -19 104 -16 18 -17 23 -5 37 18 21 18 120 0 162 -22 51 -59 65 -191
70 l-115 4 0 -266z m194 150 c7 -8 11 -32 9 -52 -2 -29 -9 -42 -29 -53 -44
-25 -59 -10 -59 59 l0 60 34 0 c18 0 39 -6 45 -14z m18 -213 c16 -21 17 -57 3
-84 -8 -14 -21 -19 -55 -19 l-45 0 0 58 c0 32 3 62 8 66 12 13 76 -2 89 -21z"/>
<path d="M7610 845 l0 -265 113 0 c137 0 184 17 211 75 27 56 19 160 -14 185
-22 16 -22 19 -8 34 39 39 30 152 -16 195 -32 30 -82 40 -193 41 l-93 0 0
-265z m190 155 c9 -5 15 -25 15 -50 0 -46 -24 -73 -60 -68 -17 3 -20 12 -23
66 l-3 62 28 0 c15 0 35 -5 43 -10z m8 -206 c16 -11 22 -25 22 -53 0 -47 -14
-61 -62 -61 l-38 0 0 58 c0 32 3 62 7 65 11 12 48 7 71 -9z"/>
<path d="M540 1010 c8 -5 20 -10 25 -10 6 0 3 5 -5 10 -8 5 -19 10 -25 10 -5
0 -3 -5 5 -10z"/>
<path d="M834 995 c6 -14 16 -20 28 -17 26 6 22 16 -10 28 -27 11 -28 10 -18
-11z"/>
<path d="M2260 1000 c11 -11 24 -20 29 -20 5 0 13 -9 16 -20 3 -11 12 -20 19
-20 21 0 40 -27 24 -34 -7 -3 1 -4 17 0 17 3 34 9 38 13 5 5 -3 6 -17 4 -30
-6 -48 23 -25 38 10 7 6 8 -12 4 -28 -7 -56 16 -44 36 5 8 1 9 -13 5 -11 -4
-23 -2 -27 4 -3 5 -10 10 -16 10 -5 0 0 -9 11 -20z"/>
<path d="M811 961 c-7 -5 -12 -14 -10 -20 3 -6 9 -7 18 -2 7 5 12 14 10 20 -3
6 -9 7 -18 2z"/>
<path d="M755 910 c28 -12 47 -12 40 0 -3 6 -18 10 -33 9 -24 0 -25 -1 -7 -9z"/>
<path d="M858 873 c7 -3 16 -2 19 1 4 3 -2 6 -13 5 -11 0 -14 -3 -6 -6z"/>
<path d="M2158 873 c7 -3 16 -2 19 1 4 3 -2 6 -13 5 -11 0 -14 -3 -6 -6z"/>
<path d="M2268 873 c7 -3 16 -2 19 1 4 3 -2 6 -13 5 -11 0 -14 -3 -6 -6z"/>
<path d="M12625 866 c-6 -8 -20 -28 -33 -45 -13 -17 -21 -31 -19 -31 8 0 70
81 65 85 -2 2 -8 -2 -13 -9z"/>
<path d="M948 853 c7 -3 16 -2 19 1 4 3 -2 6 -13 5 -11 0 -14 -3 -6 -6z"/>
<path d="M2178 853 c7 -3 16 -2 19 1 4 3 -2 6 -13 5 -11 0 -14 -3 -6 -6z"/>
<path d="M187 542 c-9 -10 -20 -33 -23 -50 -6 -31 -5 -32 25 -32 28 0 32 -3
29 -22 -2 -19 -10 -24 -46 -26 -52 -4 -52 -26 0 -30 49 -4 80 23 82 74 1 37
-1 39 -31 42 -46 5 -41 22 6 22 36 0 59 18 44 34 -13 13 -71 5 -86 -12z"/>
<path d="M301 518 c-11 -24 -22 -62 -26 -85 -6 -40 -5 -41 24 -48 17 -3 40 -4
51 0 26 8 48 61 52 123 l3 47 -43 3 c-42 3 -43 2 -61 -40z m74 -45 c-8 -52
-17 -63 -54 -63 -22 0 -23 2 -16 48 9 60 10 62 47 62 l30 0 -7 -47z"/>
<path d="M446 542 c-17 -19 -41 -125 -33 -146 6 -16 79 -14 84 2 3 8 -7 12
-32 12 -34 0 -37 2 -31 23 4 12 9 37 13 55 5 30 9 32 44 32 30 0 39 4 39 18 0
25 -62 28 -84 4z"/>
<path d="M565 528 c-3 -13 -10 -32 -15 -43 -16 -39 -30 -88 -25 -93 10 -10 35
8 35 26 0 9 6 41 14 70 7 29 10 55 5 57 -4 3 -10 -5 -14 -17z"/>
<path d="M616 528 c-21 -35 -40 -128 -28 -140 13 -13 74 -6 80 10 2 8 -7 12
-27 12 -24 0 -31 4 -31 19 0 21 19 31 56 31 32 0 31 28 -1 32 -37 4 -35 22 3
26 45 5 43 32 -3 32 -25 0 -38 -6 -49 -22z"/>
<path d="M738 533 c-12 -15 -38 -112 -38 -145 0 -15 87 -9 100 7 13 16 30 80
33 125 2 22 -2 25 -39 28 -29 2 -44 -2 -56 -15z m68 -59 c-8 -59 -11 -64 -47
-64 -34 0 -35 9 -11 67 13 34 22 43 41 43 22 0 23 -2 17 -46z"/>
<path d="M924 542 c-6 -4 -21 -25 -33 -47 -12 -22 -31 -55 -42 -74 -24 -40
-19 -51 12 -22 13 12 26 21 30 21 19 0 39 -14 39 -27 0 -8 6 -13 13 -10 8 3
11 26 9 78 -3 76 -9 93 -28 81z m-8 -89 c-11 -11 -17 4 -9 23 7 18 8 18 11 1
2 -10 1 -21 -2 -24z"/>
<path d="M1033 538 c-7 -11 -28 -77 -44 -138 -3 -12 6 -15 46 -15 44 0 50 3
57 25 4 14 13 46 21 72 10 33 11 50 3 58 -14 14 -73 13 -83 -2z m57 -42 c0
-12 -5 -37 -11 -55 -8 -23 -17 -31 -36 -31 -23 0 -24 3 -18 33 13 58 24 77 45
77 14 0 20 -7 20 -24z"/>
<path d="M1216 531 c-3 -5 -12 -39 -20 -76 -16 -75 -13 -79 46 -73 42 4 43 22
1 26 -36 4 -38 9 -22 64 9 34 14 39 49 44 22 4 40 10 40 15 0 12 -87 12 -94 0z"/>
<path d="M1335 528 c-6 -19 -35 -135 -35 -142 0 -3 4 -6 9 -6 5 0 15 16 21 35
10 30 16 35 42 35 29 0 30 -1 25 -35 -3 -19 -2 -35 3 -35 9 0 28 59 44 133 8
34 -11 36 -24 3 -11 -31 -25 -39 -51 -31 -14 5 -19 13 -16 26 6 21 -11 37 -18
17z"/>
<path d="M1476 532 c-8 -14 -35 -117 -36 -139 0 -7 4 -13 9 -13 11 0 44 123
39 147 -3 14 -5 15 -12 5z"/>
<path d="M1525 528 c-16 -44 -35 -116 -35 -135 0 -20 5 -23 44 -23 25 0 48 5
51 11 9 14 5 17 -28 21 -15 2 -28 7 -28 11 -2 12 12 98 18 113 3 8 0 14 -6 14
-7 0 -14 -6 -16 -12z"/>
<path d="M1670 534 c-16 -5 -63 -141 -54 -156 3 -4 25 -8 50 -8 50 0 64 26 17
32 -20 2 -28 9 -28 23 0 16 8 21 38 23 43 4 51 29 10 34 -42 5 -41 28 2 28 25
0 35 4 33 13 -5 12 -41 18 -68 11z"/>
<path d="M1768 492 c-19 -43 -39 -114 -34 -120 12 -11 45 27 51 57 l7 36 15
-48 c8 -29 19 -47 26 -44 11 3 46 112 47 145 0 29 -20 9 -31 -30 l-12 -43 -11
40 c-15 52 -37 55 -58 7z"/>
<path d="M1930 479 c-14 -28 -32 -60 -42 -71 -10 -12 -18 -25 -18 -30 0 -16
25 -8 38 12 7 11 22 20 33 20 12 0 23 -8 26 -20 3 -11 12 -20 19 -20 11 0 14
19 14 80 0 77 -1 80 -23 80 -19 0 -29 -11 -47 -51z m35 -28 c-9 -16 -25 -3
-18 15 4 10 9 12 15 6 6 -6 7 -15 3 -21z"/>
<path d="M13157 353 c-10 -9 -9 -23 2 -23 5 0 11 7 15 15 5 15 -5 20 -17 8z"/>
<path d="M13700 345 c0 -8 4 -15 9 -15 5 0 11 7 15 15 3 9 0 15 -9 15 -8 0
-15 -7 -15 -15z"/>
<path d="M2631 314 c0 -11 3 -14 6 -6 3 7 2 16 -1 19 -3 4 -6 -2 -5 -13z"/>
<path d="M10514 305 c-4 -9 -4 -46 -1 -83 6 -74 20 -92 73 -92 57 0 77 36 72
131 -2 40 -7 54 -18 54 -12 0 -16 -17 -20 -75 l-5 -75 -30 0 -30 0 -5 74 c-5
73 -22 104 -36 66z"/>
<path d="M10705 307 c-11 -27 0 -170 13 -175 9 -3 12 12 12 52 0 31 4 56 8 56
4 0 21 -24 38 -52 16 -29 37 -54 47 -56 15 -3 17 7 17 93 0 73 -3 96 -12 93
-8 -3 -15 -29 -18 -64 l-5 -59 -35 59 c-36 62 -56 78 -65 53z"/>
<path d="M10890 225 c0 -73 3 -96 13 -93 8 3 12 31 12 93 0 62 -4 90 -12 93
-10 3 -13 -20 -13 -93z"/>
<path d="M10951 303 c0 -10 12 -52 27 -93 38 -104 54 -102 97 13 20 52 29 90
23 93 -15 9 -26 -6 -46 -65 -10 -29 -22 -52 -27 -52 -5 0 -14 17 -20 38 -15
49 -33 83 -45 83 -6 0 -10 -8 -9 -17z"/>
<path d="M11134 307 c-3 -8 -4 -49 -2 -93 l3 -79 64 0 c82 0 98 22 19 27 -49
3 -53 5 -53 28 0 23 4 25 48 28 26 2 47 7 47 12 0 5 -21 10 -47 12 -40 3 -48
6 -48 23 0 17 8 20 48 23 33 2 47 7 47 18 0 19 -118 20 -126 1z"/>
<path d="M11310 224 c0 -72 3 -95 13 -92 6 3 13 21 15 41 4 50 31 49 66 -3 14
-22 33 -40 41 -40 21 0 19 10 -9 51 -24 34 -24 36 -5 47 26 16 24 57 -3 76
-13 9 -43 16 -70 16 l-48 0 0 -96z m105 41 c0 -16 -8 -21 -37 -23 -35 -3 -38
-1 -38 23 0 24 3 26 38 23 29 -2 37 -7 37 -23z"/>
<path d="M11507 302 c-31 -34 -13 -71 43 -87 39 -12 52 -25 39 -41 -15 -19
-58 -18 -65 1 -8 19 -34 20 -34 2 0 -23 35 -47 66 -47 37 0 74 25 74 50 0 36
-12 49 -61 65 -28 10 -48 22 -46 28 5 16 47 21 60 8 16 -16 37 -14 37 4 0 35
-85 48 -113 17z"/>
<path d="M11665 307 c-3 -7 -5 -49 -3 -93 2 -62 6 -79 18 -79 12 0 15 17 15
89 0 63 -4 91 -12 93 -7 3 -15 -2 -18 -10z"/>
<path d="M11740 225 l0 -95 40 0 c59 0 88 18 101 61 24 78 -13 129 -91 129
l-50 0 0 -95z m98 53 c7 -7 12 -30 12 -53 0 -48 -13 -65 -52 -65 -28 0 -28 0
-28 65 0 65 0 65 28 65 15 0 33 -5 40 -12z"/>
<path d="M11969 293 c-32 -84 -59 -156 -59 -159 0 -2 7 -4 15 -4 9 0 20 11 25
25 8 20 16 25 45 25 28 0 38 -5 47 -25 13 -29 38 -34 37 -7 0 9 -15 51 -32 92
-36 83 -60 100 -78 53z m46 -83 c-8 -13 -32 -13 -39 -1 -4 5 -1 22 5 38 l11
28 14 -28 c8 -15 12 -32 9 -37z"/>
<path d="M12114 307 c-3 -8 -4 -49 -2 -93 l3 -79 52 0 c72 1 93 21 93 91 0 45
-4 56 -26 73 -31 25 -111 29 -120 8z m106 -36 c26 -50 4 -111 -40 -111 l-30 0
0 65 0 65 30 0 c19 0 33 -7 40 -19z"/>
<path d="M12374 307 c-3 -8 -4 -49 -2 -93 l3 -79 54 0 c67 1 91 25 91 92 0 62
-32 93 -95 93 -29 0 -48 -5 -51 -13z m106 -36 c26 -50 4 -111 -40 -111 l-30 0
0 65 0 65 30 0 c19 0 33 -7 40 -19z"/>
<path d="M12564 307 c-3 -8 -4 -49 -2 -93 l3 -79 64 0 c82 0 98 22 19 27 -49
3 -53 5 -53 28 0 23 4 25 48 28 26 2 47 7 47 12 0 5 -21 10 -47 12 -40 3 -48
6 -48 23 0 17 8 20 48 23 33 2 47 7 47 18 0 19 -118 20 -126 1z"/>
<path d="M12735 307 c-3 -7 -5 -49 -3 -93 l3 -79 63 -3 c51 -2 62 0 62 13 0
11 -11 15 -45 15 l-44 0 -3 77 c-2 50 -7 78 -15 81 -7 2 -15 -3 -18 -11z"/>
<path d="M12964 307 c-3 -8 -4 -49 -2 -93 l3 -79 58 2 c32 1 64 7 72 13 18 15
20 51 3 68 -9 9 -9 18 0 37 10 21 9 28 -8 45 -24 24 -117 29 -126 7z m101 -42
c0 -15 -8 -21 -32 -23 -30 -3 -33 -1 -33 23 0 24 3 26 33 23 24 -2 32 -8 32
-23z m5 -60 c20 -24 4 -45 -35 -45 -32 0 -35 2 -35 30 0 26 3 30 29 30 16 0
34 -7 41 -15z"/>
<path d="M13150 225 c0 -78 3 -95 15 -95 12 0 15 17 15 95 0 78 -3 95 -15 95
-12 0 -15 -17 -15 -95z"/>
<path d="M13245 295 c-36 -35 -35 -106 1 -142 22 -22 32 -25 67 -20 54 7 77
35 77 94 0 57 -33 93 -85 93 -25 0 -44 -8 -60 -25z m99 -27 c31 -44 7 -108
-39 -108 -46 0 -74 80 -39 114 22 23 60 20 78 -6z"/>
<path d="M13514 307 c-3 -8 -4 -49 -2 -93 l3 -79 45 -3 c80 -4 126 43 85 88
-11 12 -13 20 -6 25 18 11 12 54 -8 65 -29 15 -111 13 -117 -3z m101 -42 c0
-15 -8 -21 -29 -23 -30 -4 -48 12 -39 35 4 9 17 13 37 11 23 -2 31 -8 31 -23z
m5 -60 c18 -21 -4 -45 -41 -45 -26 0 -29 4 -29 30 0 26 3 30 29 30 16 0 34 -7
41 -15z"/>
<path d="M13700 225 c0 -78 3 -95 15 -95 12 0 15 17 15 95 0 78 -3 95 -15 95
-12 0 -15 -17 -15 -95z"/>
<path d="M13796 299 c-22 -17 -26 -28 -26 -70 0 -80 55 -119 123 -88 58 26 62
124 8 166 -25 19 -76 15 -105 -8z m92 -21 c7 -7 12 -30 12 -53 0 -45 -13 -65
-44 -65 -49 0 -76 78 -40 114 18 19 55 21 72 4z"/>
<path d="M3187 292 c-18 -2 -32 -12 -39 -27 -16 -36 -4 -55 37 -55 22 0 35 -5
35 -13 0 -23 -23 -37 -62 -37 -31 0 -38 -4 -38 -20 0 -16 5 -19 33 -16 17 2
42 4 53 5 17 1 24 11 33 47 14 54 9 64 -30 64 -16 0 -29 5 -29 10 0 6 13 10
28 10 26 0 79 28 57 31 -34 3 -53 4 -78 1z"/>
<path d="M621 225 c-30 -93 -30 -95 28 -95 l49 0 16 71 c9 39 16 75 16 80 0 5
-20 9 -44 9 l-43 0 -22 -65z m77 16 c5 -34 -17 -81 -39 -81 -26 0 -30 13 -17
51 20 62 49 77 56 30z"/>
<path d="M777 283 c-4 -3 -7 -13 -7 -22 0 -9 -11 -38 -25 -66 -22 -46 -23 -51
-8 -62 30 -23 93 -13 93 13 0 9 -11 14 -31 14 -26 0 -30 3 -27 23 2 16 11 23
36 27 39 6 43 24 7 28 -37 5 -30 22 9 22 21 0 36 6 40 15 4 12 -4 15 -38 15
-23 0 -46 -3 -49 -7z"/>
<path d="M953 278 c-6 -7 -18 -42 -27 -77 -21 -74 -15 -83 49 -79 54 4 56 32
3 36 -43 4 -44 6 -22 62 15 37 19 40 55 40 28 0 39 4 39 15 0 19 -83 21 -97 3z"/>
<path d="M1076 279 c-17 -47 -34 -145 -26 -153 5 -5 12 7 16 30 4 22 13 57 21
78 9 26 10 43 4 49 -7 7 -12 5 -15 -4z"/>
<path d="M1133 282 c-16 -10 -47 -126 -39 -147 8 -22 91 -18 91 5 0 10 -12 16
-32 18 -20 2 -33 9 -33 17 0 16 33 37 53 34 23 -3 37 1 37 10 0 6 -15 11 -32
13 -45 4 -42 22 5 26 51 4 51 32 0 32 -21 0 -43 -4 -50 -8z"/>
<path d="M1255 280 c-13 -21 -44 -143 -39 -152 10 -16 22 2 29 42 10 56 22 58
37 4 7 -25 17 -46 22 -47 13 -3 47 112 43 143 -3 25 -3 25 -15 -5 -7 -16 -15
-37 -19 -45 -4 -10 -10 -2 -18 24 -12 41 -28 55 -40 36z"/>
<path d="M1391 264 c-11 -15 -21 -35 -21 -45 0 -10 -4 -21 -10 -24 -5 -3 -10
-22 -10 -41 l0 -34 50 0 c38 0 50 4 50 15 0 8 -9 15 -19 15 -41 0 -49 9 -39
43 18 55 24 62 57 65 40 4 36 26 -6 30 -24 2 -36 -3 -52 -24z"/>
<path d="M1584 233 c-44 -69 -59 -101 -51 -109 3 -3 15 4 26 15 27 27 57 27
64 1 3 -11 12 -20 20 -20 12 0 14 14 10 73 -7 119 -15 124 -69 40z m36 -17 c0
-8 -4 -18 -10 -21 -5 -3 -10 3 -10 14 0 12 5 21 10 21 6 0 10 -6 10 -14z"/>
<path d="M2762 280 c-40 -5 -45 -8 -57 -44 -23 -67 -29 -119 -14 -114 8 3 15
16 17 31 4 33 19 45 62 49 47 4 45 22 -3 26 -46 4 -39 22 8 22 34 0 55 16 39
29 -5 4 -29 4 -52 1z"/>
<path d="M2894 282 c-15 -10 -46 -144 -35 -155 14 -14 86 -4 86 13 0 9 -8 14
-20 13 -38 -5 -48 10 -36 54 10 37 15 41 51 47 54 8 56 36 3 36 -21 0 -43 -4
-49 -8z"/>
<path d="M3043 263 c-40 -58 -77 -132 -69 -140 4 -4 16 2 26 15 21 25 70 31
70 7 0 -8 7 -15 16 -15 13 0 15 12 12 77 -3 88 -21 106 -55 56z m27 -48 c0 -8
-7 -15 -16 -15 -14 0 -14 3 -4 15 7 8 14 15 16 15 2 0 4 -7 4 -15z"/>
<path d="M1496 228 c-28 -97 -30 -111 -17 -107 12 4 39 70 55 132 5 20 3 27
-9 27 -9 0 -20 -19 -29 -52z"/>
<path d="M1710 261 c-21 -40 -13 -60 28 -63 29 -2 37 -7 37 -23 0 -16 -8 -21
-44 -25 -67 -8 -65 -30 2 -30 60 0 60 -1 73 73 l6 37 -41 0 c-57 0 -52 18 6
22 69 5 69 28 -1 28 -44 0 -57 -4 -66 -19z"/>
<path d="M1904 253 c-4 -16 -10 -32 -14 -38 -4 -5 -11 -29 -15 -52 l-7 -43 55
0 c60 0 60 -1 73 73 6 36 5 37 -24 37 -34 0 -47 -19 -24 -36 20 -15 8 -44 -17
-44 -29 0 -32 13 -17 56 12 36 16 39 56 44 67 8 64 30 -4 30 -52 0 -56 -2 -62
-27z"/>
<path d="M2046 268 c-2 -7 -13 -39 -25 -71 -11 -33 -21 -63 -21 -68 0 -5 23
-9 50 -9 56 0 67 14 19 24 -43 8 -36 39 11 46 43 6 48 33 7 38 -35 4 -25 22
13 22 15 0 30 7 34 15 4 12 -4 15 -40 15 -27 0 -46 -5 -48 -12z"/>
<path d="M2160 254 c-6 -14 -10 -31 -10 -39 0 -8 -4 -17 -10 -20 -5 -3 -10
-22 -10 -41 l0 -34 49 0 c56 0 58 2 71 62 5 24 12 55 16 71 6 27 6 27 -45 27
-46 0 -53 -3 -61 -26z m72 -44 c-5 -50 -20 -72 -45 -68 -17 2 -22 9 -20 32 3
38 30 78 51 74 13 -3 16 -12 14 -38z"/>
<path d="M2306 271 c-7 -11 -46 -133 -46 -143 0 -5 25 -8 55 -8 48 0 55 2 55
20 0 11 5 29 12 39 15 24 4 51 -22 51 -24 0 -39 -28 -20 -40 19 -11 8 -45 -15
-45 -17 0 -20 6 -19 37 2 51 18 68 65 68 28 0 39 4 39 15 0 11 -12 15 -49 15
-28 0 -52 -4 -55 -9z"/>
<path d="M2435 268 c-2 -7 -13 -42 -25 -77 -11 -35 -19 -66 -16 -68 12 -13 35
8 38 34 2 22 9 29 30 31 26 3 27 2 21 -32 -3 -22 -2 -36 5 -36 11 0 22 33 22
71 0 15 7 32 15 39 8 7 15 21 15 31 0 16 -8 19 -50 19 -32 0 -52 -5 -55 -12z
m60 -28 c3 -5 -3 -10 -14 -10 -12 0 -21 5 -21 10 0 6 6 10 14 10 8 0 18 -4 21
-10z"/>
<path d="M2585 233 c-49 -79 -65 -113 -50 -113 7 0 18 7 25 15 16 19 56 19 64
0 3 -8 10 -15 16 -15 7 0 10 27 8 77 -4 95 -19 104 -63 36z m35 -29 c0 -8 -4
-12 -10 -9 -5 3 -10 10 -10 16 0 5 5 9 10 9 6 0 10 -7 10 -16z"/>
<path d="M2831 243 c-17 -64 -24 -123 -15 -123 5 0 19 36 30 80 15 61 17 80 8
80 -7 0 -18 -17 -23 -37z"/>
<path d="M13427 214 c-15 -16 -5 -24 29 -24 24 0 34 4 32 13 -5 13 -50 22 -61
11z"/>
</g>
</svg>
