<?xml version="1.0" standalone="no"?>
<!DOCTYPE svg PUBLIC "-//W3C//DTD SVG 20010904//EN"
 "http://www.w3.org/TR/2001/REC-SVG-20010904/DTD/svg10.dtd">
<svg version="1.0" xmlns="http://www.w3.org/2000/svg"
 width="300.000000pt" height="292.000000pt" viewBox="0 0 300.000000 292.000000"
 preserveAspectRatio="xMidYMid meet">
<metadata>
Created by potrace 1.10, written by Peter Selinger 2001-2011
</metadata>
<g transform="translate(0.000000,292.000000) scale(0.100000,-0.100000)"
fill="#000000" stroke="none">
<path d="M1265 2510 c-130 -15 -339 -102 -471 -196 -119 -84 -281 -269 -360
-410 -50 -89 -100 -236 -113 -328 -15 -106 -13 -305 3 -396 53 -294 239 -562
515 -742 179 -116 359 -174 578 -185 185 -10 346 28 543 127 126 63 139 82 18
26 -109 -51 -224 -89 -328 -107 -92 -16 -292 -16 -380 0 -560 107 -954 592
-926 1141 11 223 85 429 220 611 150 203 387 358 638 416 97 23 135 27 268 27
218 -1 335 -28 520 -121 58 -29 94 -44 80 -33 -25 19 -137 77 -200 104 -150
62 -401 90 -605 66z"/>
<path d="M1282 2466 c-336 -64 -612 -255 -774 -534 -41 -72 -28 -65 19 11 167
266 470 460 794 507 79 12 302 9 399 -4 20 -3 11 1 -20 10 -78 22 -325 27
-418 10z"/>
<path d="M1320 2415 c-322 -59 -619 -275 -779 -566 -50 -93 -99 -252 -112
-372 -27 -240 40 -502 184 -718 122 -183 368 -350 614 -416 86 -23 118 -26
263 -27 175 -1 240 9 374 58 65 23 219 106 212 113 -2 2 -44 -16 -93 -42 -68
-34 -119 -51 -214 -71 -347 -74 -679 -3 -934 199 -183 145 -302 346 -356 602
-65 312 38 669 257 889 193 194 449 310 740 335 112 10 258 -3 368 -33 82 -23
81 -13 -1 12 -161 51 -367 65 -523 37z"/>
<path d="M1305 1831 c-32 -20 -203 -193 -274 -278 -24 -29 -48 -53 -53 -53 -4
0 -7 31 -6 70 3 80 -9 101 -61 102 -61 2 -148 -114 -212 -281 -32 -85 -34
-118 -8 -134 30 -19 47 1 109 122 70 137 92 155 76 61 -9 -52 -7 -62 9 -80 42
-47 66 -29 285 208 63 68 116 119 118 113 2 -6 -22 -73 -53 -148 -81 -196
-172 -449 -182 -508 -11 -62 0 -111 28 -120 29 -10 46 9 54 60 7 49 9 51 45
30 35 -20 63 -18 94 6 18 14 26 28 23 40 -3 11 0 33 6 50 11 28 10 33 -13 51
-16 13 -33 18 -50 14 -54 -10 -57 5 -20 98 19 47 38 86 43 86 4 0 21 -10 37
-21 24 -18 36 -20 75 -15 36 6 51 4 65 -9 14 -13 22 -14 44 -4 23 11 32 10 56
-4 34 -20 76 -21 110 -2 16 9 41 12 72 8 25 -3 61 -1 78 6 28 9 38 8 65 -9 41
-25 56 -25 133 2 51 18 67 20 82 10 35 -21 67 -13 115 28 26 22 57 40 70 40
33 0 59 28 44 46 -6 8 -20 14 -30 14 -11 0 -29 17 -44 40 -22 35 -30 40 -62
40 -24 0 -45 -8 -59 -21 l-23 -22 -26 32 c-19 22 -35 31 -57 31 -41 0 -64 -14
-140 -86 -59 -57 -88 -76 -88 -58 0 4 19 42 42 85 41 77 41 79 23 99 -10 11
-24 20 -31 20 -16 0 -81 -78 -133 -163 -28 -43 -51 -69 -66 -73 -46 -11 -57
14 -29 68 15 30 15 32 -2 45 -21 15 -100 18 -109 3 -3 -6 -17 3 -30 19 -21 24
-31 28 -65 25 -25 -2 -40 1 -40 8 0 6 20 64 45 129 50 131 52 145 29 177 -19
28 -67 29 -109 3z m85 -17 c17 -20 0 -76 -92 -294 -151 -358 -207 -524 -193
-577 6 -26 -6 -30 -25 -8 -23 28 25 183 161 523 71 177 129 327 129 332 0 6
-5 10 -12 10 -14 0 -190 -180 -316 -323 -81 -93 -122 -121 -143 -100 -5 5 -1
51 11 118 24 129 24 125 6 125 -19 0 -85 -104 -152 -243 -37 -76 -61 -114 -67
-108 -12 12 17 89 80 212 53 104 106 169 138 169 40 0 45 -49 19 -175 -9 -42
-14 -79 -11 -81 2 -3 37 33 78 78 237 266 330 358 364 358 7 0 18 -7 25 -16z
m450 -269 c0 -9 -9 -15 -25 -15 -16 0 -25 6 -25 15 0 9 9 15 25 15 16 0 25 -6
25 -15z m-40 -46 c0 -6 -8 -23 -19 -37 -38 -55 -63 -114 -52 -125 18 -18 102
22 150 72 25 25 58 56 75 69 62 46 128 13 85 -42 -11 -14 -27 -26 -35 -26 -12
0 -11 5 5 26 11 15 18 31 15 36 -16 26 -139 -95 -132 -131 2 -9 14 -18 27 -19
32 -5 147 53 169 85 24 36 69 83 79 83 19 -1 36 -20 42 -51 8 -36 21 -41 70
-25 17 6 22 5 19 -5 -3 -8 -23 -15 -47 -17 -35 -3 -50 -11 -80 -43 -21 -21
-43 -39 -49 -39 -18 0 -44 32 -38 46 6 16 -10 19 -19 4 -12 -20 -105 -60 -139
-60 -35 0 -66 21 -66 44 0 9 -14 6 -47 -10 -55 -28 -80 -30 -105 -7 -16 15
-20 15 -36 0 -52 -47 -113 -41 -146 15 l-19 30 -20 -36 c-12 -20 -25 -36 -29
-36 -15 0 -8 26 17 60 20 27 24 41 19 67 -7 37 14 48 23 13 l6 -21 14 21 c14
20 53 28 53 10 0 -5 -5 -10 -12 -10 -18 0 -48 -31 -48 -50 0 -27 39 -70 63
-70 33 0 86 36 105 71 43 78 73 119 87 119 8 0 15 -5 15 -11z m-373 -26 c8
-19 -38 -63 -66 -63 -24 0 -45 -26 -37 -46 9 -24 77 -13 127 20 21 15 39 22
39 16 0 -6 -21 -24 -47 -40 -70 -45 -153 -38 -153 13 0 35 37 87 73 102 42 19
56 18 64 -2z m566 -80 c11 -10 -13 -33 -35 -33 -16 0 -17 3 -8 20 11 20 31 26
43 13z m-705 -288 c0 -30 -14 -32 -36 -4 -21 25 -50 17 -58 -17 -11 -42 34
-72 63 -43 6 6 17 9 23 7 21 -7 -19 -38 -48 -38 -33 0 -45 8 -61 38 -9 17 -9
27 0 45 17 31 28 37 75 37 38 0 42 -2 42 -25z"/>
<path d="M2126 1411 c-29 -55 -17 -90 18 -55 32 32 37 50 16 69 -18 16 -19 15
-34 -14z"/>
<path d="M1383 1145 c-14 -10 -18 -25 -17 -73 1 -78 12 -91 77 -91 71 1 87 17
87 88 0 31 -4 63 -10 71 -12 19 -112 23 -137 5z m49 -27 c-20 -20 -14 -38 13
-38 18 0 25 5 25 19 0 11 -6 22 -12 24 -7 3 3 5 22 5 19 0 29 -2 23 -5 -17 -6
-17 -85 -1 -101 9 -9 4 -12 -22 -11 -19 0 -29 3 -22 6 6 2 12 16 12 29 0 19
-5 24 -25 24 -27 0 -35 -26 -13 -48 9 -9 4 -12 -22 -12 -26 0 -31 3 -22 12 16
16 16 95 0 101 -7 3 3 6 22 6 26 1 31 -2 22 -11z"/>
<path d="M1614 1150 c-18 -7 -20 -16 -20 -81 1 -71 2 -74 28 -83 21 -8 32 -6
47 8 15 14 18 29 17 82 -2 79 -18 96 -72 74z m54 -27 c-14 -3 -18 -15 -18 -48
0 -31 5 -47 18 -54 13 -8 7 -10 -28 -10 -35 0 -41 2 -27 10 11 7 17 22 17 49
0 27 -6 42 -17 49 -14 8 -8 10 27 10 25 -1 37 -3 28 -6z"/>
<path d="M1768 1149 c-14 -8 -18 -24 -18 -79 0 -78 10 -90 74 -90 65 0 95 62
45 93 -11 7 -19 21 -19 32 0 11 -4 25 -8 32 -11 17 -54 24 -74 12z m55 -26
c-19 -7 -17 -103 2 -103 8 0 19 9 25 20 15 28 28 25 22 -5 -4 -23 -8 -25 -61
-24 -31 0 -50 3 -43 6 7 3 12 24 12 53 0 29 -5 50 -12 53 -7 3 5 5 27 5 22 0
34 -2 28 -5z"/>
<path d="M1969 1143 c-19 -22 -19 -123 0 -145 10 -13 29 -18 61 -18 63 0 79
18 76 91 -1 31 -7 63 -14 71 -18 22 -106 23 -123 1z m121 -33 c0 -24 -15 -27
-24 -4 -8 21 -50 14 -54 -10 -3 -16 0 -18 22 -12 20 5 26 3 26 -9 0 -11 -6
-14 -25 -9 -21 5 -25 3 -22 -15 2 -11 6 -23 9 -27 11 -10 48 7 48 22 0 8 7 14
16 14 11 0 14 -5 10 -16 -3 -9 -6 -20 -6 -25 0 -5 -30 -9 -67 -9 -51 1 -64 3
-50 11 12 7 17 23 17 54 0 33 -4 45 -17 48 -10 3 12 5 50 6 61 1 67 -1 67 -19z"/>
</g>
</svg>
